# xmcd CD database file
#
# Track frame offsets:
#	150
#	15136
#	32077
#	48130
#	61507
#	75078
#	87847
#	97649
#	110234
#	124195
#	138823
#	152460
#	166711
#	180782
#	194770
#	206972
#	220571
#	231618
#	243081
#	254790
#	265689
#	278143
#	288777
#	301917
#	313135
#
# Disc length: 4387 seconds
#
# Revision: 3
# Processed by: cddbd v1.5.2PL0 Copyright (c) Steve Scherf et al.
# Submitted via: CDex 1.51
#
DISCID=3d112119
DTITLE=Various Artist - A Complete Introduction To Northern Soul CD2
DYEAR=2008
DGENRE=Soul/R&B
TTITLE0=The Velvelettes - Ain't No Place Like Motown
TTITLE1=Gladys Knight and The Pips - You've Lost That Lovin' Feelin'
TTITLE2=Frankie Valli - Thank You
TTITLE3=Tammi Terrell - Tears At The End Of A Love Affair
TTITLE4=The Contours - Baby Hit And Run
TTITLE5=Four Tops - Have A Little Faith
TTITLE6=Reflections - (Just Like) Romeo And Juliet
TTITLE7=Kiki Dee - The Day Will Come Between Sunday And Monday
TTITLE8=David Ruffin - You Can Come Right Back To Me
TTITLE9=The Sisters Love - I'm Learning To Trust My Man
TTITLE10=Martha Reeves and The Vandellas - Baby (Don't You Leave Me)
TTITLE11=The Isley Brothers - My Love Is Your Love (Forever)
TTITLE12=Brenda Holloway - Think It Over (Before You Break My Heart)
TTITLE13=The Originals - Suspicion
TTITLE14=Marvin Gaye - This Love Starved Heart Of Mine (It's Killing Me)
TTITLE15=Tammi Terrell - I Gotta Find A Way To Get You Back
TTITLE16=Edwin Starr and Blinky - I See A Rainbow
TTITLE17=The Isley Brothers - Why When Love Is Gone
TTITLE18=Martha Reeves and The Vandellas - One Way Out
TTITLE19=Frank Wilson - Do I Love You (Indeed I Do)
TTITLE20=Debbie Dean - Why Am I Lovin' You
TTITLE21=Edwin Starr - I Have Faith In You
TTITLE22=Brenda Holloway - All I Do Is Think About You
TTITLE23=Edwin Starr - If My Heart Could Tell The Story
TTITLE24=Martha Reeves - No One There
EXTD=YEAR: 2008
EXTT0=
EXTT1=
EXTT2=
EXTT3=
EXTT4=
EXTT5=
EXTT6=
EXTT7=
EXTT8=
EXTT9=
EXTT10=
EXTT11=
EXTT12=
EXTT13=
EXTT14=
EXTT15=
EXTT16=
EXTT17=
EXTT18=
EXTT19=
EXTT20=
EXTT21=
EXTT22=
EXTT23=
EXTT24=
PLAYORDER=
